<svg width="15" height="14" viewBox="0 0 15 14" fill="none" xmlns="http://www.w3.org/2000/svg">
<path d="M5.73016 13.1253H3.41627C3.30841 13.1238 3.20537 13.0804 3.12909 13.0041C3.05282 12.9278 3.00934 12.8248 3.00793 12.7169V6.72803" stroke="white" stroke-linecap="round" stroke-linejoin="round"/>
<path d="M11.9919 6.72803V12.7169C11.9905 12.8248 11.947 12.9278 11.8707 13.0041C11.7944 13.0804 11.6914 13.1238 11.5835 13.1253H9.26965" stroke="white" stroke-linecap="round" stroke-linejoin="round"/>
<path d="M5.73035 13.1252V8.90577C5.73176 8.79791 5.77523 8.69487 5.8515 8.61859C5.92778 8.54232 6.03082 8.49885 6.13868 8.49744H8.86091C8.96877 8.49885 9.07181 8.54232 9.14808 8.61859C9.22436 8.69487 9.26783 8.79791 9.26924 8.90577V13.1252" stroke="white" stroke-linecap="round" stroke-linejoin="round"/>
<path d="M10.3583 1.55579H11.9916V3.18912" stroke="white" stroke-linecap="round" stroke-linejoin="round"/>
<path d="M4.4375 3.49999L7.14042 1.01677C7.23977 0.929485 7.3675 0.881348 7.49975 0.881348C7.632 0.881348 7.75973 0.929485 7.85908 1.01677L13.6248 6.31967" stroke="white" stroke-linecap="round" stroke-linejoin="round"/>
<path d="M1.375 6.31966L4.64167 3.31976" stroke="white" stroke-linecap="round" stroke-linejoin="round"/>
</svg>
