<svg width="15" height="14" viewBox="0 0 15 14" fill="none" xmlns="http://www.w3.org/2000/svg">
<g clip-path="url(#clip0_3_1105)">
<path d="M5.89612 2.48029H14.0628" stroke="#830823" stroke-linecap="round" stroke-linejoin="round"/>
<path d="M3.125 1.16669H1.375C1.13338 1.16669 0.9375 1.36256 0.9375 1.60419V3.35419C0.9375 3.59581 1.13338 3.79169 1.375 3.79169H3.125C3.36662 3.79169 3.5625 3.59581 3.5625 3.35419V1.60419C3.5625 1.36256 3.36662 1.16669 3.125 1.16669Z" stroke="#830823" stroke-linecap="round" stroke-linejoin="round"/>
<path d="M5.89612 6.85529H14.0628" stroke="#830823" stroke-linecap="round" stroke-linejoin="round"/>
<path d="M3.125 5.54169H1.375C1.13338 5.54169 0.9375 5.73756 0.9375 5.97919V7.72919C0.9375 7.97081 1.13338 8.16669 1.375 8.16669H3.125C3.36662 8.16669 3.5625 7.97081 3.5625 7.72919V5.97919C3.5625 5.73756 3.36662 5.54169 3.125 5.54169Z" stroke="#830823" stroke-linecap="round" stroke-linejoin="round"/>
<path d="M5.89612 11.2303H14.0628" stroke="#830823" stroke-linecap="round" stroke-linejoin="round"/>
<path d="M3.125 9.91669H1.375C1.13338 9.91669 0.9375 10.1126 0.9375 10.3542V12.1042C0.9375 12.3458 1.13338 12.5417 1.375 12.5417H3.125C3.36662 12.5417 3.5625 12.3458 3.5625 12.1042V10.3542C3.5625 10.1126 3.36662 9.91669 3.125 9.91669Z" stroke="#830823" stroke-linecap="round" stroke-linejoin="round"/>
</g>
<defs>
<clipPath id="clip0_3_1105">
<rect width="14" height="14" fill="white" transform="translate(0.5)"/>
</clipPath>
</defs>
</svg>
